Normalized EMG Linear Envelopes
nRows=138
nColumns=4

endheader
time	 med_gas_r	  soleus_r	 tib_ant_r	
3	  0.068014	  0.045540	  0.016119	
3.0625	  0.072013	  0.046038	  0.016910	
3.125	  0.077360	  0.047027	  0.017749	
3.1875	  0.080455	  0.047783	  0.017726	
3.25	  0.078988	  0.047921	  0.016972	
3.3125	  0.074873	  0.046526	  0.016401	
3.375	  0.070522	  0.044900	  0.016564	
3.4375	  0.067044	  0.044375	  0.016932	
3.5	  0.064775	  0.044929	  0.016738	
3.5625	  0.063492	  0.044724	  0.015839	
3.625	  0.064247	  0.043601	  0.014803	
3.6875	  0.068497	  0.042795	  0.014488	
3.75	  0.075975	  0.042810	  0.014811	
3.8125	  0.083475	  0.043582	  0.015548	
3.875	  0.088264	  0.044893	  0.016168	
3.9375	  0.088305	  0.045925	  0.016474	
4	  0.082572	  0.046560	  0.016640	
4.0625	  0.075787	  0.046508	  0.016588	
4.125	  0.070901	  0.045148	  0.016228	
4.1875	  0.069027	  0.043152	  0.015657	
4.25	  0.070302	  0.040949	  0.015155	
4.3125	  0.073007	  0.039226	  0.014575	
4.375	  0.076858	  0.039057	  0.014102	
4.4375	  0.081899	  0.040845	  0.013968	
4.5	  0.086539	  0.043259	  0.014095	
4.5625	  0.087326	  0.044369	  0.014811	
4.625	  0.083848	  0.043701	  0.016065	
4.6875	  0.079473	  0.043024	  0.017213	
4.75	  0.078471	  0.043019	  0.017481	
4.8125	  0.081692	  0.043047	  0.017358	
4.875	  0.087205	  0.042849	  0.017530	
4.9375	  0.091777	  0.042506	  0.017696	
5	  0.093037	  0.041805	  0.017339	
5.0625	  0.090414	  0.039819	  0.016437	
5.125	  0.085285	  0.036488	  0.015180	
5.1875	  0.077371	  0.032579	  0.013915	
5.25	  0.068351	  0.029144	  0.012972	
5.3125	  0.066412	  0.031704	  0.013466	
5.375	  0.084724	  0.050834	  0.017324	
5.4375	  0.138732	  0.098970	  0.027140	
5.5	  0.239925	  0.184134	  0.045057	
5.5625	  0.375018	  0.293760	  0.068706	
5.625	  0.484129	  0.385417	  0.088791	
5.6875	  0.526516	  0.430278	  0.097544	
5.75	  0.523425	  0.443624	  0.097972	
5.8125	  0.516132	  0.445204	  0.095908	
5.875	  0.515271	  0.445600	  0.094211	
5.9375	  0.517152	  0.445846	  0.092924	
6	  0.520525	  0.440599	  0.092877	
6.0625	  0.516802	  0.418029	  0.092144	
6.125	  0.493050	  0.374756	  0.088281	
6.1875	  0.453520	  0.324357	  0.082083	
6.25	  0.410387	  0.284369	  0.075871	
6.3125	  0.386734	  0.272254	  0.073369	
6.375	  0.395452	  0.293602	  0.076402	
6.4375	  0.437454	  0.341018	  0.084692	
6.5	  0.500563	  0.402464	  0.093459	
6.5625	  0.555539	  0.459803	  0.098866	
6.625	  0.588209	  0.496658	  0.101546	
6.6875	  0.605649	  0.508763	  0.103414	
6.75	  0.613718	  0.497770	  0.105441	
6.8125	  0.618920	  0.476268	  0.107992	
6.875	  0.631783	  0.456526	  0.111674	
6.9375	  0.645709	  0.451536	  0.115162	
7	  0.648212	  0.460855	  0.118383	
7.0625	  0.636211	  0.471977	  0.119684	
7.125	  0.626279	  0.482532	  0.120811	
7.1875	  0.632470	  0.501480	  0.123292	
7.25	  0.650082	  0.524998	  0.124614	
7.3125	  0.673944	  0.541789	  0.122353	
7.375	  0.693004	  0.543096	  0.118476	
7.4375	  0.705471	  0.531591	  0.116691	
7.5	  0.720896	  0.523677	  0.117106	
7.5625	  0.740901	  0.530675	  0.119142	
7.625	  0.740224	  0.535986	  0.119126	
7.6875	  0.714829	  0.529966	  0.117627	
7.75	  0.674583	  0.515121	  0.116922	
7.8125	  0.623513	  0.497713	  0.115019	
7.875	  0.569173	  0.478620	  0.109326	
7.9375	  0.523771	  0.460154	  0.101462	
8	  0.493369	  0.445354	  0.095649	
8.0625	  0.484293	  0.438304	  0.094303	
8.125	  0.514830	  0.441154	  0.097800	
8.1875	  0.577891	  0.454812	  0.104555	
8.25	  0.642944	  0.478463	  0.112157	
8.3125	  0.678029	  0.508383	  0.117631	
8.375	  0.678743	  0.522848	  0.119008	
8.4375	  0.655082	  0.518415	  0.118892	
8.5	  0.616490	  0.500013	  0.119804	
8.5625	  0.583922	  0.483025	  0.122543	
8.625	  0.577345	  0.473858	  0.124684	
8.6875	  0.595986	  0.471693	  0.124938	
8.75	  0.618399	  0.476123	  0.121999	
8.8125	  0.617137	  0.478160	  0.116079	
8.875	  0.583625	  0.461392	  0.107715	
8.9375	  0.539358	  0.433229	  0.099854	
9	  0.508304	  0.403048	  0.094568	
9.0625	  0.487755	  0.375631	  0.092037	
9.125	  0.475258	  0.354419	  0.091961	
9.1875	  0.466734	  0.344282	  0.093375	
9.25	  0.462758	  0.341201	  0.094713	
9.3125	  0.466917	  0.338571	  0.095059	
9.375	  0.471492	  0.338162	  0.094843	
9.4375	  0.474981	  0.340348	  0.094516	
9.5	  0.483258	  0.344585	  0.093936	
9.5625	  0.496351	  0.347487	  0.093600	
9.625	  0.509821	  0.344762	  0.094436	
9.6875	  0.516360	  0.333778	  0.097261	
9.75	  0.516563	  0.324353	  0.101277	
9.8125	  0.510067	  0.322653	  0.103344	
9.875	  0.493875	  0.328703	  0.102846	
9.9375	  0.466879	  0.331662	  0.100250	
10	  0.428535	  0.316290	  0.094378	
10.0625	  0.373540	  0.276993	  0.082886	
10.125	  0.298043	  0.219162	  0.066190	
10.1875	  0.218942	  0.160106	  0.050370	
10.25	  0.157183	  0.116378	  0.040843	
10.3125	  0.116377	  0.087303	  0.037202	
10.375	  0.093951	  0.067534	  0.036164	
10.4375	  0.084701	  0.055063	  0.033464	
10.5	  0.080397	  0.048560	  0.030125	
10.5625	  0.077446	  0.047032	  0.029331	
10.625	  0.075423	  0.048062	  0.030381	
10.6875	  0.073584	  0.049627	  0.030928	
10.75	  0.072070	  0.050792	  0.029754	
10.8125	  0.070726	  0.051423	  0.027668	
10.875	  0.069768	  0.050887	  0.024585	
10.9375	  0.070077	  0.049165	  0.021044	
11	  0.071319	  0.047980	  0.018458	
11.0625	  0.072743	  0.047813	  0.017006	
11.125	  0.074169	  0.047564	  0.016387	
11.1875	  0.076232	  0.046753	  0.016334	
11.25	  0.077706	  0.046767	  0.016385	
11.3125	  0.077153	  0.047585	  0.016438	
11.375	  0.075044	  0.047801	  0.016622	
11.4375	  0.072377	  0.047027	  0.016622	
11.5	  0.070624	  0.046653	  0.016528	
11.5625	  0.071324	  0.046082	  0.016763	
